<svg width="68" height="64" viewBox="0 0 841.9 595.3" fill="none" xmlns="http://www.w3.org/2000/svg">
<path d="M61.4668 12.5333C55.3334 6.36667 46.1668 5.1 38.7334 8.63333L35.5334 5.43333C35.225 5.12432 34.8587 4.87916 34.4555 4.71189C34.0523 4.54462 33.62 4.45852 33.1834 4.45852C32.7469 4.45852 32.3146 4.54462 31.9113 4.71189C31.5081 4.87916 31.1418 5.12432 30.8334 5.43333L30.5668 5.73333C30.1001 2.5 27.3334 0 24.0001 0C20.3334 0 17.3334 3 17.3334 6.66667C17.3334 6.96667 17.3334 7.26667 17.4334 7.53333C15.4001 8.7 14.0001 10.8333 14.0001 13.3333C14.0001 14.8667 14.5334 16.2333 15.4001 17.3667C14.9725 17.661 14.622 18.0539 14.3783 18.5123C14.1347 18.9706 14.0049 19.4809 14.0001 20V24.5C6.23342 27.2333 0.666748 34.6333 0.666748 43.3333C0.666748 54.3667 9.63342 63.3333 20.6667 63.3333C31.7001 63.3333 40.6667 54.3667 40.6667 43.3333C40.6669 39.2002 39.3844 35.1689 36.9962 31.7955C34.608 28.4222 31.2318 25.8731 27.3334 24.5V20C27.3286 19.4809 27.1988 18.9706 26.9552 18.5123C26.7115 18.0539 26.361 17.661 25.9334 17.3667C26.8001 16.2333 27.3334 14.8667 27.3334 13.3333C27.3334 13.0333 27.3334 12.7333 27.2334 12.4667C27.8334 12.1333 28.3334 11.6667 28.7668 11.2667C31.8668 12.9333 34.0001 16.2 34.0001 20V20.2667C34.4334 20.5 34.8334 20.8333 35.2668 21.1C35.9001 19.7 36.7668 18.3333 37.9001 17.2333C40.4045 14.7362 43.7968 13.3339 47.3334 13.3339C50.87 13.3339 54.2624 14.7362 56.7668 17.2333C59.2639 19.7377 60.6662 23.13 60.6662 26.6667C60.6662 30.2033 59.2639 33.5956 56.7668 36.1C54.1001 38.7667 50.6668 40 47.1001 40C47.3334 41.0667 47.3334 42.2 47.3334 43.3333C47.3334 44.4667 47.2334 45.5667 47.1001 46.6667C52.3334 46.6667 57.5001 44.7667 61.4668 40.8C63.3288 38.9474 64.8065 36.7451 65.8148 34.3196C66.8231 31.8942 67.3421 29.2934 67.3421 26.6667C67.3421 24.04 66.8231 21.4392 65.8148 19.0137C64.8065 16.5882 63.3288 14.3859 61.4668 12.5333ZM24.0001 3.33333C25.8334 3.33333 27.3334 4.83333 27.3334 6.66667C27.3334 7.76667 26.7667 8.7 25.9334 9.3C24.7334 7.7 22.8334 6.66667 20.6667 6.66667C20.6667 4.83333 22.1667 3.33333 24.0001 3.33333ZM18.7334 10.7C19.9334 12.3 21.8334 13.3333 24.0001 13.3333C24.0001 15.1667 22.5001 16.6667 20.6667 16.6667C18.8334 16.6667 17.3334 15.1667 17.3334 13.3333C17.3334 12.2333 17.9001 11.3 18.7334 10.7ZM34.0001 43.3333C34.0001 50.7 28.0334 56.6667 20.6667 56.6667C13.3001 56.6667 7.33342 50.7 7.33342 43.3333C7.33342 35.9667 13.3001 30 20.6667 30C28.0334 30 34.0001 35.9667 34.0001 43.3333Z" fill="#222222"/>
</svg>
